<svg xmlns="http://www.w3.org/2000/svg" xmlns:xlink="http://www.w3.org/1999/xlink" width="28" height="28" viewBox="0 0 28 28">
    <defs>
        <path id="a" d="M18.308 2H9.692C8.206 2 7 3.222 7 4.727v18.546C7 24.778 8.206 26 9.692 26h8.616C19.794 26 21 24.778 21 23.273V4.727C21 3.222 19.794 2 18.308 2zM14 24.866a1.613 1.613 0 0 1-1.615-1.615c0-.893.721-1.615 1.615-1.615s1.615.722 1.615 1.615c0 .894-.721 1.615-1.615 1.615zM19 21H9V5h10v16z"/>
    </defs>
    <g fill="none" fill-rule="evenodd">
        <path d="M0 0h28v28H0z"/>
        <mask id="b" fill="#fff">
            <use xlink:href="#a"/>
        </mask>
        <use fill="#FFFFFF" fill-rule="nonzero" xlink:href="#a"/>
        <g fill="#FFFFFF" mask="url(#b)">
            <path d="M0 0h28v28H0z"/>
        </g>
    </g>
</svg>
