<svg xmlns="http://www.w3.org/2000/svg" xmlns:xlink="http://www.w3.org/1999/xlink" width="28" height="28" viewBox="0 0 28 28">
    <defs>
        <path id="a" d="M25.497 8.183c-3.699-5.897-9.27-1.794-9.27-1.794-.361.265-1.027.483-1.48.484h-1.492c-.453.001-1.12-.217-1.48-.482 0 0-5.572-4.103-9.27 1.794C-1.194 14.08.296 20.5.296 20.5c.26 1.572 1.121 2.62 2.745 2.489 1.62-.131 5.134-4.233 5.134-4.233.29-.338.898-.615 1.35-.615l8.946-.001c.452 0 1.06.276 1.35.614 0 0 3.515 4.102 5.137 4.233 1.622.132 2.484-.918 2.744-2.489 0 0 1.492-6.419-2.206-12.315zm-14.859 4.8H8.72v1.795s-.406.3-1.035.293c-.628-.01-.912-.328-.912-.328v-1.76H4.962s-.227-.224-.287-.817c-.06-.592.25-1.071.25-1.071h1.919V9.233s.395-.205.962-.19c.568.018.984.225.984.225l-.007 1.827h1.811s.317.394.343.87c.026.477-.299 1.018-.299 1.018zm8.8 2.045c-.84 0-1.518-.659-1.518-1.473 0-.816.677-1.474 1.517-1.474.837 0 1.52.658 1.52 1.474 0 .815-.683 1.473-1.52 1.473zm0-4.054c-.84 0-1.518-.659-1.518-1.473 0-.816.677-1.474 1.517-1.474.837 0 1.52.658 1.52 1.474 0 .815-.683 1.473-1.52 1.473zm3.78 2.176c-.84 0-1.517-.658-1.517-1.473 0-.816.677-1.474 1.517-1.474.837 0 1.52.658 1.52 1.474 0 .815-.683 1.473-1.52 1.473z"/>
    </defs>
    <g fill="none" fill-rule="evenodd">
        <path d="M0 0h28v28H0z"/>
        <mask id="b" fill="#fff">
            <use xlink:href="#a"/>
        </mask>
        <use fill="#FFFFFF" fill-rule="nonzero" xlink:href="#a"/>
        <g fill="#FFFFFF" mask="url(#b)">
            <path d="M0 0h28v28H0z"/>
        </g>
    </g>
</svg>
