<?xml version="1.0" encoding="UTF-8"?>
<svg width="1080px" height="1080px" viewBox="0 0 1080 1080" version="1.1" xmlns="http://www.w3.org/2000/svg" xmlns:xlink="http://www.w3.org/1999/xlink">
    <!-- Generator: Sketch 52.5 (67469) - http://www.bohemiancoding.com/sketch -->
    <title>pattern / 01</title>
    <desc>Created with Sketch.</desc>
    <g id="pattern-/-01" stroke="none" stroke-width="1" fill="none" fill-rule="evenodd" fill-opacity="0.3">
        <path d="M689.150743,996.018729 C700.466585,996.713879 709.454867,994.676189 716.912556,1001.45257 C723.31994,1007.27908 726.613357,1013.95464 724.217185,1022.58828 C721.963517,1030.69659 715.640579,1033.99722 708.098444,1033.14818 C679.143823,1029.8847 657.055764,1039.03307 641.586206,1065.15688 C636.619692,1073.54643 626.195817,1072.09776 618.189226,1065.88387 C609.111218,1058.83686 607.522567,1050.53222 613.713557,1040.49235 C631.716512,1011.26425 657.071598,995.376645 689.150743,996.018729" id="Fill-9" fill="#000000"></path>
        <path d="M138.58894,997.006894 C148.114474,997.808086 156.299573,995.584912 163.365884,1000.59369 C170.173607,1005.41675 174.94429,1011.46018 173.841333,1020.49082 C172.669772,1030.0839 166.484771,1034.93349 157.59779,1034.07924 C128.894531,1031.31487 106.249618,1039.1623 90.9876538,1065.851 C86.1483656,1074.31922 75.7256894,1073.33232 67.6144724,1067.18808 C58.6377776,1060.38592 56.2366041,1052.28911 62.5060418,1041.9479 C80.3222215,1012.5638 105.60051,996.619564 138.58894,997.006894" id="Fill-11" fill="#000000"></path>
        <path d="M633.950247,313 C637.914242,313.593966 646.274475,313.249254 653.14821,316.298634 C661.487358,320.000317 666.489793,327.711273 664.602679,337.90416 C662.815718,347.572022 655.883999,351.061574 647.24966,350.255477 C619.644022,347.693997 597.494148,354.996601 582.987615,380.966718 C578.022079,389.865607 568.038295,389.674689 559.79403,383.994886 C550.980467,377.917337 546.67384,370.068497 553.030991,359.202095 C570.362925,329.593934 595.348742,313.238647 633.950247,313" id="Fill-15" fill="#000000"></path>
        <path d="M1010.95025,267 C1014.91424,267.593966 1023.27447,267.249254 1030.14821,270.298634 C1038.48736,274.000317 1043.48979,281.711273 1041.60268,291.90416 C1039.81572,301.572022 1032.884,305.061574 1024.24966,304.255477 C996.644022,301.693997 974.494148,308.996601 959.987615,334.966718 C955.022079,343.865607 945.038295,343.674689 936.79403,337.994886 C927.980467,331.917337 923.67384,324.068497 930.030991,313.202095 C947.362925,283.593934 972.348742,267.238647 1010.95025,267" id="Fill-15-Copy-15" fill="#000000"></path>
        <path d="M140.464448,267 C145.400142,267.503897 152.82744,266.878004 159.156743,269.238362 C167.729543,272.442085 173.604868,279.247343 172.950294,289.53214 C172.242933,300.729256 165.037346,305.17946 155.113168,304.251229 C127.362421,301.662791 105.413095,309.343238 90.8171628,335.142751 C85.8392373,343.926467 75.7989252,343.640042 67.5534113,337.853186 C58.6849968,331.636691 54.7945078,323.749381 61.1026955,312.976599 C78.4964013,283.294429 103.718594,267.29173 140.464448,267" id="Fill-17" fill="#000000"></path>
        <path d="M509.650824,116.675144 C513.614819,117.269111 521.975052,116.924398 528.848787,119.973779 C537.187935,123.675462 542.19037,131.386417 540.303255,141.579304 C538.516295,151.247166 531.584576,154.736719 522.950237,153.930621 C495.344599,151.369142 473.194725,158.671745 458.688192,184.641862 C453.722656,193.540751 443.738872,193.349833 435.494607,187.67003 C426.681044,181.592482 422.374417,173.743641 428.731568,162.877239 C446.063502,133.269078 471.049318,116.913791 509.650824,116.675144" id="Fill-15" fill="#000000" transform="translate(483.200577, 154.175144) rotate(-45.000000) translate(-483.200577, -154.175144) "></path>
        <path d="M498.625391,778.675144 C502.589386,779.269111 510.949619,778.924398 517.823354,781.973779 C526.162503,785.675462 531.164937,793.386417 529.277823,803.579304 C527.490862,813.247166 520.559143,816.736719 511.924804,815.930621 C484.319166,813.369142 462.169292,820.671745 447.662759,846.641862 C442.697223,855.540751 432.713439,855.349833 424.469174,849.67003 C415.655611,843.592482 411.348984,835.743641 417.706135,824.877239 C435.038069,795.269078 460.023886,778.913791 498.625391,778.675144" id="Fill-15-Copy" fill="#000000" transform="translate(472.175144, 816.175144) rotate(-45.000000) translate(-472.175144, -816.175144) "></path>
        <path d="M303.625391,487.675144 C307.589386,488.269111 315.949619,487.924398 322.823354,490.973779 C331.162503,494.675462 336.164937,502.386417 334.277823,512.579304 C332.490862,522.247166 325.559143,525.736719 316.924804,524.930621 C289.319166,522.369142 267.169292,529.671745 252.662759,555.641862 C247.697223,564.540751 237.713439,564.349833 229.469174,558.67003 C220.655611,552.592482 216.348984,544.743641 222.706135,533.877239 C240.038069,504.269078 265.023886,487.913791 303.625391,487.675144" id="Fill-15-Copy-10" fill="#000000" transform="translate(277.175144, 525.175144) rotate(-135.000000) translate(-277.175144, -525.175144) "></path>
        <path d="M524.625391,553.675144 C528.589386,554.269111 536.949619,553.924398 543.823354,556.973779 C552.162503,560.675462 557.164937,568.386417 555.277823,578.579304 C553.490862,588.247166 546.559143,591.736719 537.924804,590.930621 C510.319166,588.369142 488.169292,595.671745 473.662759,621.641862 C468.697223,630.540751 458.713439,630.349833 450.469174,624.67003 C441.655611,618.592482 437.348984,610.743641 443.706135,599.877239 C461.038069,570.269078 486.023886,553.913791 524.625391,553.675144" id="Fill-15-Copy-11" fill="#000000" transform="translate(498.175144, 591.175144) rotate(-135.000000) translate(-498.175144, -591.175144) "></path>
        <path d="M843.996708,510.725953 C847.960702,511.319919 856.320936,510.975206 863.194671,514.024587 C871.533819,517.72627 876.536254,525.437226 874.649139,535.630112 C872.862179,545.297975 865.93046,548.787527 857.29612,547.98143 C829.690483,545.41995 807.540609,552.722554 793.034076,578.692671 C788.06854,587.591559 778.084756,587.400641 769.84049,581.720838 C761.026928,575.64329 756.720301,567.794449 763.077452,556.928048 C780.409385,527.319887 805.395202,510.9646 843.996708,510.725953" id="Fill-15-Copy-12" fill="#000000" transform="translate(817.546461, 548.225953) rotate(-150.000000) translate(-817.546461, -548.225953) "></path>
        <path d="M980.461652,125.081446 C984.425646,125.675413 992.785879,125.3307 999.659615,128.380081 C1007.99876,132.081764 1013.0012,139.79272 1011.11408,149.985606 C1009.32712,159.653469 1002.3954,163.143021 993.761064,162.336924 C966.155427,159.775444 944.005553,167.078048 929.499019,193.048165 C924.533484,201.947053 914.549699,201.756135 906.305434,196.076332 C897.491872,189.998784 893.185245,182.149943 899.542396,171.283541 C916.874329,141.675381 941.860146,125.320094 980.461652,125.081446" id="Fill-15-Copy-14" fill="#000000" transform="translate(954.011405, 162.581446) rotate(-113.000000) translate(-954.011405, -162.581446) "></path>
        <path d="M104.996708,677.725953 C108.960702,678.319919 117.320936,677.975206 124.194671,681.024587 C132.533819,684.72627 137.536254,692.437226 135.649139,702.630112 C133.862179,712.297975 126.93046,715.787527 118.29612,714.98143 C90.6904828,712.41995 68.5406089,719.722554 54.0340756,745.692671 C49.0685399,754.591559 39.0847557,754.400641 30.8404904,748.720838 C22.026928,742.64329 17.7203009,734.794449 24.0774518,723.928048 C41.4093855,694.319887 66.3952023,677.9646 104.996708,677.725953" id="Fill-15-Copy-13" fill="#000000" transform="translate(78.546461, 715.225953) rotate(-330.000000) translate(-78.546461, -715.225953) "></path>
        <path d="M126.554561,502.746449 C130.518555,503.340416 138.878789,502.995703 145.752524,506.045084 C154.091672,509.746767 159.094107,517.457722 157.206992,527.650609 C155.420032,537.318471 148.488313,540.808024 139.853973,540.001926 C112.248336,537.440447 90.0984618,544.74305 75.5919285,570.713167 C70.6263927,579.612056 60.6426085,579.421138 52.3983432,573.741335 C43.5847809,567.663787 39.2781538,559.814946 45.6353046,548.948544 C62.9672383,519.340383 87.9530551,502.985096 126.554561,502.746449" id="Fill-15-Copy-9" fill="#000000" transform="translate(100.104314, 540.246449) rotate(-255.000000) translate(-100.104314, -540.246449) "></path>
        <path d="M1007.23531,987.675144 C1011.1993,988.269111 1019.55953,987.924398 1026.43327,990.973779 C1034.77242,994.675462 1039.77485,1002.38642 1037.88774,1012.5793 C1036.10078,1022.24717 1029.16906,1025.73672 1020.53472,1024.93062 C992.929082,1022.36914 970.779208,1029.67175 956.272675,1055.64186 C951.307139,1064.54075 941.323355,1064.34983 933.079089,1058.67003 C924.265527,1052.59248 919.9589,1044.74364 926.316051,1033.87724 C943.647984,1004.26908 968.633801,987.913791 1007.23531,987.675144" id="Fill-15-Copy-6" fill="#000000" transform="translate(980.785060, 1025.175144) rotate(-186.000000) translate(-980.785060, -1025.175144) "></path>
        <path d="M850.755205,-3.39517364 C854.719199,-2.80120732 863.079433,-3.14591992 869.953168,-0.0965392265 C878.292316,3.60514377 883.294751,11.3160995 881.407636,21.5089859 C879.620676,31.1768485 872.688957,34.6664007 864.054617,33.8603035 C836.44898,31.2988237 814.299106,38.6014276 799.792573,64.5715445 C794.827037,73.4704329 784.843253,73.2795151 776.598987,67.5997121 C767.785425,61.5221638 763.478798,53.6733231 769.835949,42.8069213 C787.167882,13.1987606 812.153699,-3.15652646 850.755205,-3.39517364" id="Fill-15-Copy-4" fill="#000000" transform="translate(824.304958, 34.104826) rotate(-84.000000) translate(-824.304958, -34.104826) "></path>
        <path d="M353.948049,-46.3542923 C357.912044,-45.760326 366.272277,-46.1050386 373.146012,-43.0556579 C381.48516,-39.3539749 386.487595,-31.6430192 384.60048,-21.4501328 C382.81352,-11.7822702 375.881801,-8.29271799 367.247462,-9.09881515 C339.641824,-11.6602949 317.49195,-4.35769108 302.985417,21.6124259 C298.019881,30.5113142 288.036097,30.3203965 279.791832,24.6405935 C270.978269,18.5630452 266.671642,10.7142044 273.028793,-0.152197362 C290.360727,-29.7603581 315.346543,-46.1156451 353.948049,-46.3542923" id="Fill-15-Copy-7" fill="#000000" transform="translate(327.497802, -8.854292) rotate(91.000000) translate(-327.497802, 8.854292) "></path>
        <path d="M353.948049,1030.64571 C357.912044,1031.23967 366.272277,1030.89496 373.146012,1033.94434 C381.48516,1037.64603 386.487595,1045.35698 384.60048,1055.54987 C382.81352,1065.21773 375.881801,1068.70728 367.247462,1067.90118 C339.641824,1065.33971 317.49195,1072.64231 302.985417,1098.61243 C298.019881,1107.51131 288.036097,1107.3204 279.791832,1101.64059 C270.978269,1095.56305 266.671642,1087.7142 273.028793,1076.8478 C290.360727,1047.23964 315.346543,1030.88435 353.948049,1030.64571" id="Fill-15-Copy-8" fill="#000000" transform="translate(327.497802, 1068.145708) rotate(91.000000) translate(-327.497802, -1068.145708) "></path>
        <path d="M850.755205,1068.60483 C854.719199,1069.19879 863.079433,1068.85408 869.953168,1071.90346 C878.292316,1075.60514 883.294751,1083.3161 881.407636,1093.50899 C879.620676,1103.17685 872.688957,1106.6664 864.054617,1105.8603 C836.44898,1103.29882 814.299106,1110.60143 799.792573,1136.57154 C794.827037,1145.47043 784.843253,1145.27952 776.598987,1139.59971 C767.785425,1133.52216 763.478798,1125.67332 769.835949,1114.80692 C787.167882,1085.19876 812.153699,1068.84347 850.755205,1068.60483" id="Fill-15-Copy-5" fill="#000000" transform="translate(824.304958, 1106.104826) rotate(-84.000000) translate(-824.304958, -1106.104826) "></path>
        <path d="M1106.82335,507.973779 C1115.1625,511.675462 1120.16494,519.386417 1118.27782,529.579304 C1116.49086,539.247166 1109.55914,542.736719 1100.9248,541.930621 C1073.31917,539.369142 1051.16929,546.671745 1036.66276,572.641862 C1031.69722,581.540751 1021.71344,581.349833 1013.46917,575.67003 C1004.65561,569.592482 1000.34898,561.743641 1006.70614,550.877239 C1024.03807,521.269078 1049.02389,504.913791 1087.62539,504.675144 C1091.58939,505.269111 1099.94962,504.924398 1106.82335,507.973779 Z" id="Fill-15-Copy-2" fill="#000000" transform="translate(1061.175144, 542.175144) rotate(-135.000000) translate(-1061.175144, -542.175144) "></path>
        <path d="M6.27510294,504.675144 C10.2390975,505.269111 18.5993307,504.924398 25.473066,507.973779 C33.8122141,511.675462 38.8146488,519.386417 36.9275343,529.579304 C35.140574,539.247166 28.2088548,542.736719 19.5745156,541.930621 C-8.03112213,539.369142 -30.180996,546.671745 -44.6875293,572.641862 C-49.6530651,581.540751 -59.6368493,581.349833 -67.8811145,575.67003 C-76.6946769,569.592482 -81.001304,561.743641 -74.6441532,550.877239 C-57.3122195,521.269078 -32.3264027,504.913791 6.27510294,504.675144" id="Fill-15-Copy-3" fill="#000000" transform="translate(-20.175144, 542.175144) rotate(-135.000000) translate(20.175144, -542.175144) "></path>
        <path d="M661.381069,539.453002 C662.216729,552.08296 660.398249,563.032811 656.713986,574.078061 C652.903586,585.515514 645.797846,590.221936 635.097191,587.015421 C625.342567,584.095107 617.45898,576.860574 620.859434,565.481422 C628.4487,540.062505 626.609196,517.770602 607.189294,497.59871 C599.589517,489.701673 603.179177,479.583927 611.173134,471.988992 C620.61767,463.021351 628.133356,467.483971 635.917084,474.851005 C654.832436,492.738587 664.644874,514.060585 661.381069,539.453002" id="Fill-27" fill="#000000"></path>
        <path d="M836.381069,918.453002 C837.216729,931.08296 835.398249,942.032811 831.713986,953.078061 C827.903586,964.515514 820.797846,969.221936 810.097191,966.015421 C800.342567,963.095107 792.45898,955.860574 795.859434,944.481422 C803.4487,919.062505 801.609196,896.770602 782.189294,876.59871 C774.589517,868.701673 778.179177,858.583927 786.173134,850.988992 C795.61767,842.021351 803.133356,846.483971 810.917084,853.851005 C829.832436,871.738587 839.644874,893.060585 836.381069,918.453002" id="Fill-27-Copy" fill="#000000"></path>
        <path d="M221.168774,331.216911 C220.152606,318.634191 223.465738,305.371036 238.23193,304.095221 C253.426819,302.782195 258.158352,315.247966 258.269495,329.154344 C258.438857,351.215304 271.019229,364.946257 289.52725,373.972645 C300.87446,379.506491 310.311063,386.571313 303.944135,400.180002 C297.693642,413.528211 284.192367,410.216409 273.543772,407.701991 C247.054598,401.439868 221.253455,363.239856 221.168774,331.216911" id="Fill-29" fill="#000000"></path>
        <path d="M735.198014,352.314886 C734.115157,340.088662 737.172636,326.782251 751.897369,325.156677 C767.205995,323.462267 772.269945,335.767917 772.365491,349.640896 C772.519426,372.880783 786.262157,386.547256 805.67927,395.797673 C815.366594,400.409644 822.33616,406.377143 819.268065,418.020914 C815.531146,432.190415 803.476399,430.347744 793.300728,429.288738 C765.167676,426.344702 735.500577,387.129709 735.198014,352.314886" id="Fill-31" fill="#000000"></path>
        <path d="M499.761214,1092.27207 C464.141353,1093.0653 423.903318,1035.30267 436.771642,1001.55889 C439.69843,993.880479 445.133136,987.169798 453.908199,987.30729 C463.791411,987.460647 471.77115,994.721297 471.665107,1003.62128 C471.320468,1031.96584 484.819748,1049.74465 509.814095,1060.61183 C519.601868,1064.86351 522.120391,1072.93854 519.140581,1082.35676 C516.224397,1091.57403 508.069687,1092.52061 499.761214,1092.27207" id="Fill-35" fill="#000000" transform="translate(477.318645, 1039.805214) rotate(-74.000000) translate(-477.318645, -1039.805214) "></path>
        <path d="M262.472975,220.237581 C237.824234,219.757437 217.409763,208.783465 199.879888,191.909048 C191.914168,184.242739 190.273389,174.613172 198.106787,166.018583 C205.596151,157.80811 215.980697,156.234302 223.814095,164.338077 C243.508741,184.712214 265.722777,186.851525 291.255421,178.406314 C299.496368,175.674825 309.748593,176.731143 313.564728,187.075592 C317.497306,197.708128 313.162473,205.550491 302.841441,210.768062 C290.117462,217.202 277.509924,223.155794 262.472975,220.237581" id="Fill-39" fill="#000000"></path>
        <path d="M702.025433,78.0545196 C701.429717,113.706741 660.367526,153.079056 625.062159,151.977398 C615.731041,151.684687 610.30634,145.857073 608.055274,138.02838 C605.371918,128.688232 607.622985,119.534355 618.488202,117.197988 C647.224883,111.019121 664.189594,93.6959407 670.747735,64.9463807 C673.162228,54.366202 681.417895,51.1517011 691.139128,53.9723724 C703.485726,57.5487709 701.804016,68.4323048 702.025433,78.0545196" id="Fill-41" fill="#000000"></path>
        <path d="M470.973438,350.002249 C469.614878,384.280088 431.892369,419.38288 396.960987,418.996845 C387.773527,418.89637 378.739366,418.325249 376.513865,407.103778 C374.029339,394.586708 380.785136,384.671412 391.791058,383.32822 C417.693566,380.165902 429.941752,363.793765 437.326609,341.869062 C441.021681,330.890847 444.996923,321.562536 458.767542,324.571498 C473.103787,327.712664 470.761989,339.653324 470.973438,350.002249" id="Fill-43" fill="#000000"></path>
        <path d="M1004.96862,413.10405 C1004.09692,447.430358 967.152419,482.709 931.856239,482.9947 C921.649352,483.079351 911.854543,482.301613 910.200942,469.386921 C908.742816,458.038288 915.378349,448.573158 924.972401,447.51501 C952.148505,444.525743 964.547866,427.029272 971.949445,404.189156 C975.394005,393.570645 979.942727,386.290589 991.908877,388.348686 C1006.39505,390.835333 1004.94749,402.538446 1004.96862,413.10405" id="Fill-45" fill="#000000"></path>
        <path d="M822.383005,237.858322 C792.112693,237.346546 772.599512,226.242078 755.018591,211.070059 C746.082549,203.356106 742.196853,193.365816 750.836438,183.322217 C759.094866,173.731752 769.984343,173.678442 778.597459,182.479919 C796.850701,201.127749 817.300896,203.691958 841.22916,195.876716 C851.006926,192.678117 863.145755,191.990419 867.142622,206.042928 C870.927734,219.35976 861.531126,224.765392 851.673952,229.920466 C840.450962,235.795226 828.836225,238.695288 822.383005,237.858322" id="Fill-47" fill="#000000"></path>
        <path d="M96.9745674,116.485364 C95.9569867,151.797634 53.7405684,191.172238 19.2851802,188.906604 C10.1374987,188.300679 4.97050863,182.404763 2.824626,174.438163 C0.583839465,166.118546 2.52409698,157.193003 11.6401438,155.148664 C41.0445356,148.557251 59.5771583,132.055008 65.940992,102.085418 C67.8970669,92.8858919 75.5526481,89.7140049 84.2679896,91.4580159 C98.6301132,94.3295747 96.7636698,106.079256 96.9745674,116.485364" id="Fill-49" fill="#000000"></path>
        <path d="M240.883331,41.470396 C239.86575,76.7826663 197.649332,116.15727 163.193944,113.891637 C154.046262,113.285711 148.879272,107.389795 146.73339,99.4231953 C144.492603,91.1035781 146.432861,82.1780356 155.548907,80.1336964 C184.953299,73.5422834 203.485922,57.0400407 209.849756,27.0704505 C211.80583,17.8709244 219.461412,14.6990374 228.176753,16.4430484 C242.538877,19.3146072 240.672433,31.0642883 240.883331,41.470396" id="Fill-49-Copy" fill="#000000" transform="translate(193.383331, 64.985033) rotate(55.000000) translate(-193.383331, -64.985033) "></path>
        <path d="M160,818.569032 C159.899767,853.958804 120.25486,892.394503 83.8121441,892.595101 C73.1768638,892.653169 67.7378887,886.350158 65.6171631,877.196538 C63.6441498,868.676388 66.255491,860.488808 75.5719121,858.525055 C105.436159,852.232602 122.612981,834.289608 129.318061,804.75942 C131.380756,795.679705 139.647365,793.188062 148.27798,795.299624 C160.891549,798.382504 159.862839,808.892801 160,818.569032" id="Fill-51" fill="#000000"></path>
        <path d="M695,820.753339 C693.951143,857.790885 651.764946,897.162708 617.310777,894.90747 C608.171488,894.306776 603.000991,888.410487 600.850571,880.443383 C598.610549,872.12851 600.544873,863.197134 609.657809,861.152666 C639.041623,854.555567 657.589002,838.05755 663.945393,808.086066 C665.900801,798.891228 673.543227,795.729679 682.260865,797.447454 C696.697146,800.292848 694.641597,812.132849 695,820.753339" id="Fill-53" fill="#000000"></path>
        <path d="M994,820.753339 C992.951143,857.790885 950.764946,897.162708 916.310777,894.90747 C907.171488,894.306776 902.000991,888.410487 899.850571,880.443383 C897.610549,872.12851 899.544873,863.197134 908.657809,861.152666 C938.041623,854.555567 956.589002,838.05755 962.945393,808.086066 C964.900801,798.891228 972.543227,795.729679 981.260865,797.447454 C995.697146,800.292848 993.641597,812.132849 994,820.753339" id="Fill-53-Copy-2" fill="#000000"></path>
        <path d="M671.06361,701.377609 C670.014753,738.415155 627.828556,777.786978 593.374387,775.53174 C584.235098,774.931046 579.064601,769.034757 576.91418,761.067654 C574.674159,752.75278 576.608483,743.821404 585.721419,741.776936 C615.105233,735.179837 633.652612,718.681821 640.009003,688.710337 C641.96441,679.515498 649.606837,676.353949 658.324475,678.071724 C672.760756,680.917118 670.705206,692.757119 671.06361,701.377609" id="Fill-53-Copy" fill="#000000" transform="translate(623.563610, 726.624270) rotate(-165.000000) translate(-623.563610, -726.624270) "></path>
        <path d="M273.405929,943.763417 C248.3736,945.341443 229.718227,933.866337 212.209333,920.606684 C201.790643,912.721851 194.351741,901.702149 205.66331,889.453916 C215.36347,878.958456 226.363324,882.411049 235.477037,891.614434 C251.496037,907.791845 270.140843,909.894114 291.036339,903.693214 C302.057327,900.42596 314.959173,897.158705 320.432684,911.228552 C326.566608,927.008809 313.474563,932.309492 302.289792,937.986149 C292.600199,942.894974 282.514358,944.695406 273.405929,943.763417" id="Fill-55" fill="#000000"></path>
        <path d="M304.102098,689.008838 C304.97983,681.923952 304.926634,674.664065 306.937436,668.019333 C309.730218,658.786708 317.86918,657.64655 326.353916,658.076098 C337.078196,658.627616 343.929819,664.519314 342.440336,674.796641 C338.732586,700.378596 349.047259,718.615814 368.272233,734.307565 C377.427236,741.774271 378.78373,753.165241 370.533056,762.493321 C362.410052,771.678218 352.409235,767.91835 344.323469,761.761499 C320.262993,743.450037 302.484945,721.352192 304.102098,689.008838" id="Fill-59" fill="#000000"></path>
        <path d="M859.195653,658.009902 C872.855826,657.771298 879.246893,665.374792 877.570635,677.97305 C874.606585,700.343441 882.301408,717.104002 899.979279,730.799836 C910.861654,739.225186 915.736106,751.436376 904.965482,762.656036 C894.375788,773.679512 883.860594,765.370812 874.702371,758.111968 C847.871598,736.860361 834.466855,710.301155 840.37899,675.205251 C842.363893,663.428849 847.376703,657.72888 859.195653,658.009902" id="Fill-61" fill="#000000"></path>
    </g>
</svg>